<svg width="409" height="191" viewBox="0 0 409 191" fill="none" xmlns="http://www.w3.org/2000/svg">
  <path d="M0 30H350C366.569 30 380 43.4315 380 60V190H0V30Z" fill="#E8E8E8" />
  <path d="M380 190.5L379.553 163.236L382.2 170.895C383.489 174.625 385.521 178.055 388.173 180.978C390.645 183.703 393.609 185.935 396.909 187.559L402.678 190.398L402.742 190.43L402.813 190.442L403.151 190.5H380Z" fill="#E8E8E8" stroke="#E8E8E8" />
  <path d="M24.5466 30.4398L24.8535 30.5H0.5V4.41069L2.78692 10.6911C4.19578 14.5601 6.39224 18.0946 9.23735 21.0711C11.7877 23.7392 14.8121 25.9096 18.1563 27.4715L24.4313 30.4022L24.4866 30.428L24.5466 30.4398Z" fill="#E8E8E8" stroke="#E8E8E8" />
</svg>
