<svg width="27" height="27" viewBox="0 0 27 27" fill="none" xmlns="http://www.w3.org/2000/svg">
<path fill-rule="evenodd" clip-rule="evenodd" d="M0 1C0 0.447715 0.447715 0 1 0H9C9.55228 0 10 0.447715 10 1C10 1.55228 9.55229 2 9 2H2V9C2 9.55228 1.55228 10 1 10C0.447715 10 0 9.55229 0 9V1ZM26 0C26.2071 0 26.3995 0.0629599 26.5591 0.170784C26.6737 0.248198 26.7714 0.348739 26.8455 0.465709C26.9433 0.62027 27 0.803518 27 1V9C27 9.55228 26.5523 10 26 10C25.4477 10 25 9.55229 25 9V2L18 2C17.4477 2 17 1.55228 17 1C17 0.447715 17.4477 0 18 0H26ZM26.5 26.8662C26.6874 26.7578 26.8364 26.5903 26.9214 26.3892C26.972 26.2696 27 26.1381 27 26V18C27 17.4477 26.5523 17 26 17C25.4477 17 25 17.4477 25 18V25H18C17.4477 25 17 25.4477 17 26C17 26.5523 17.4477 27 18 27H26C26.1821 27 26.3529 26.9513 26.5 26.8662ZM1 27C0.516751 27 0.113563 26.6572 0.0203164 26.2015C0.00699551 26.1364 0 26.069 0 26V18C0 17.4477 0.447715 17 1 17C1.55228 17 2 17.4477 2 18L2 25H9C9.55228 25 10 25.4477 10 26C10 26.5523 9.55229 27 9 27H1Z" fill="#00468A"/>
</svg>
