<?xml version="1.0" encoding="utf-8"?><svg viewBox="0 0 502.66 502.66" xmlns="http://www.w3.org/2000/svg" xmlns:xlink="http://www.w3.org/1999/xlink"><style>:root>svg{display:none}:root>svg:target{display:block}</style><svg viewBox="0 0 22 23" id="arrButton" xmlns="http://www.w3.org/2000/svg"><path d="M1 1.5h20m0 0v20m0-20l-20 20"/></svg><svg viewBox="0 0 13 12" id="check" xmlns="http://www.w3.org/2000/svg"><path d="M2.125 4.278L4.856 9.35a1.25 1.25 0 002.225-.046L10.875 1.5"/></svg><svg viewBox="0 0 409 191" id="dec" xmlns="http://www.w3.org/2000/svg"><path d="M0 30h350c16.569 0 30 13.431 30 30v130H0V30z"/><path d="M380 190.5l-.447-27.264 2.647 7.659a29.2 29.2 0 0014.709 16.664l5.769 2.839.064.032.071.012.338.058H380zM24.547 30.44l.306.06H.5V4.41l2.287 6.281a29.758 29.758 0 0015.37 16.78l6.274 2.931.056.026.06.012z"/></svg><svg viewBox="0 0 502.664 502.664" id="icon" xmlns="http://www.w3.org/2000/svg"><path d="M153.821 358.226L0 274.337v-46.463l153.821-83.414v54.574L46.636 250.523l107.185 53.431v54.272zm26.273 29.358L282.103 115.08h32.227L212.084 387.584h-31.99zm168.749-29.358v-54.272l107.164-52.999-107.164-52.59v-53.927l153.821 83.522v46.183l-153.821 84.083z"/></svg><svg viewBox="0 0 26 27" id="list" xmlns="http://www.w3.org/2000/svg"><path d="M23.54 4.556h-3.632M15.066 2v5.111m0-2.555H1.75M6.592 13.5H1.75m9.684-2.556v5.112M24.75 13.5H11.434m12.106 8.944h-3.632m-4.842-2.555V25m0-2.556H1.75"/></svg><svg viewBox="0 0 26 21" id="mapOne" xmlns="http://www.w3.org/2000/svg"><rect x=".5" width="3" height="3" rx="1.5"/><path d="M8.5 1.5h16"/><rect x=".5" y="9" width="3" height="3" rx="1.5"/><path d="M8.5 10.5h16"/><rect x=".5" y="18" width="3" height="3" rx="1.5"/><path d="M8.5 19.5h16"/></svg><svg viewBox="0 0 26 21" id="mapTwo" xmlns="http://www.w3.org/2000/svg"><rect width="3" height="3" rx="1.5"/><path d="M8 1.5h16"/><rect y="9" width="3" height="3" rx="1.5"/><path d="M8 10.5h16"/><rect y="18" width="3" height="3" rx="1.5"/><path d="M8 19.5h16"/></svg><svg viewBox="0 0 27 27" id="scaleOne" xmlns="http://www.w3.org/2000/svg"><path fill-rule="evenodd" clip-rule="evenodd" d="M0 1a1 1 0 011-1h8a1 1 0 010 2H2v7a1 1 0 01-2 0V1zm26-1a.995.995 0 01.846.466A.996.996 0 0127 1v8a1 1 0 11-2 0V2h-7a1 1 0 110-2h8zm.5 26.866A1.004 1.004 0 0027 26v-8a1 1 0 10-2 0v7h-7a1 1 0 100 2h8a.995.995 0 00.5-.134zM1 27a1 1 0 01-1-1v-8a1 1 0 112 0v7h7a1 1 0 110 2H1z"/></svg><svg viewBox="0 0 27 27" id="scaleTwo" xmlns="http://www.w3.org/2000/svg"><path fill-rule="evenodd" clip-rule="evenodd" d="M16.497.002l-.812 11.678 11.314-.839L16.497.002zm-5.995 27l.813-11.678L0 16.163l10.502 10.839z"/></svg></svg>