<svg width="50" height="50" viewBox="0 0 50 50" fill="none" xmlns="http://www.w3.org/2000/svg">
  <path d="M-5 3.58518L0.990783 0.359375L6.98157 3.58518L12.9723 0.359375L18.9631 3.58518L24.9539 0.359375L31.0369 3.58518L37.0276 0.359375L43.0184 3.58518L49.0092 0.359375L55 3.58518" fill="#00468A" />
  <path d="M-5 10.1291L0.990783 6.90332L6.98157 10.1291L12.9723 6.90332L18.9631 10.1291L24.9539 6.90332L31.0369 10.1291L37.0276 6.90332L43.0184 10.1291L49.0092 6.90332L55 10.1291" fill="#00468A" />
  <path d="M-5 16.7649L0.990783 13.5391L6.98157 16.7649L12.9723 13.5391L18.9631 16.7649L24.9539 13.5391L31.0369 16.7649L37.0276 13.5391L43.0184 16.7649L49.0092 13.5391L55 16.7649" fill="#00468A" />
  <path d="M-5 23.3088L0.990783 20.083L6.98157 23.3088L12.9723 20.083L18.9631 23.3088L24.9539 20.083L31.0369 23.3088L37.0276 20.083L43.0184 23.3088L49.0092 20.083L55 23.3088" fill="#00468A" />
  <path d="M-5 29.9446L0.990783 26.7188L6.98157 29.9446L12.9723 26.7188L18.9631 29.9446L24.9539 26.7188L31.0369 29.9446L37.0276 26.7188L43.0184 29.9446L49.0092 26.7188L55 29.9446" fill="#00468A" />
  <path d="M-5 36.4885L0.990783 33.2627L6.98157 36.4885L12.9723 33.2627L18.9631 36.4885L24.9539 33.2627L31.0369 36.4885L37.0276 33.2627L43.0184 36.4885L49.0092 33.2627L55 36.4885" fill="#00468A" />
  <path d="M-5 43.1246L0.990783 39.8066L6.98157 43.1246L12.9723 39.8066L18.9631 43.1246L24.9539 39.8066L31.0369 43.1246L37.0276 39.8066L43.0184 43.1246L49.0092 39.8066L55 43.1246" fill="#00468A" />
  <path d="M-5 49.6682L0.990783 46.4424L6.98157 49.6682L12.9723 46.4424L18.9631 49.6682L24.9539 46.4424L31.0369 49.6682L37.0276 46.4424L43.0184 49.6682L49.0092 46.4424L55 49.6682" fill="#00468A" />
</svg>
