<svg width="50" height="50" viewBox="0 0 50 50" fill="none" xmlns="http://www.w3.org/2000/svg">
  <path d="M16.1742 4.35358C17.1587 4.85205 18.3542 4.496 18.9168 3.49905C19.4091 2.5021 19.0574 1.29152 18.0729 0.721831C17.7213 0.579409 17.3697 0.436988 17.018 0.508199C16.5961 0.65062 16.2445 0.793041 15.8929 0.935462C15.6819 1.07788 15.4709 1.29152 15.3303 1.57636C14.838 2.64452 15.1896 3.8551 16.1742 4.35358Z" fill="#00468A" />
  <path d="M15.2596 10.4072C15.7518 9.41022 15.4002 8.19963 14.4157 7.62995C13.4311 7.13147 12.2356 7.48753 11.6731 8.48448C11.1808 9.48143 11.5324 10.692 12.5169 11.2617C13.5015 11.8314 14.7673 11.4041 15.2596 10.4072Z" fill="#00468A" />
  <path d="M11.6033 17.3144C12.0956 16.3174 11.744 15.1069 10.7594 14.5372C9.7749 14.0387 8.5794 14.3947 8.01681 15.3917C7.52454 16.3887 7.87616 17.5992 8.86069 18.1689C9.91554 18.6674 11.111 18.3113 11.6033 17.3144Z" fill="#00468A" />
  <path d="M7.94706 24.2216C8.43932 23.2247 8.0877 22.0141 7.10317 21.4444C6.11865 20.9459 4.92315 21.302 4.36056 22.2989C3.86829 23.2959 4.21991 24.5065 5.20444 25.0761C6.25929 25.5746 7.45479 25.2186 7.94706 24.2216Z" fill="#00468A" />
  <path d="M4.35997 31.0576C4.85223 30.0606 4.50062 28.85 3.51609 28.2803C2.53156 27.7819 1.33606 28.1379 0.77347 29.1349C0.632823 29.4197 0.5625 29.7046 0.5625 29.9182C0.632823 30.3454 0.773469 30.7015 0.843792 31.1288C1.05476 31.4136 1.26573 31.6985 1.61735 31.8409C2.60188 32.4106 3.79738 32.0545 4.35997 31.0576Z" fill="#00468A" />
  <path d="M11.0413 3.71273C11.0413 3.64152 11.1116 3.57031 11.1116 3.57031C10.549 3.92637 9.98642 4.35363 9.42383 4.78089C10.0567 4.70968 10.6897 4.35363 11.0413 3.71273Z" fill="#00468A" />
  <path d="M4.64073 11.4041C5.62525 11.9026 6.82075 11.5466 7.38334 10.5496C7.87561 9.55265 7.52399 8.34207 6.53946 7.77238C6.46914 7.70117 6.39881 7.70117 6.32849 7.70117C5.48461 8.69812 4.71105 9.69507 4.00781 10.8344C4.14846 11.0481 4.42975 11.2617 4.64073 11.4041Z" fill="#00468A" />
  <path d="M1.05472 18.3112C2.03925 18.8097 3.23475 18.4536 3.79734 17.4567C4.2896 16.4597 3.93798 15.2491 2.95345 14.6794C2.67216 14.537 2.39087 14.4658 2.10957 14.4658C1.61731 15.6764 1.19537 16.887 0.84375 18.1688C0.914073 18.24 0.984399 18.24 1.05472 18.3112Z" fill="#00468A" />
  <path d="M0.0703224 22.4414C-1.0741e-06 23.1535 0 23.8656 0 24.5065C0 24.4353 0.0703224 24.3641 0.0703224 24.3641C0.42194 23.7232 0.42194 23.0111 0.0703224 22.4414Z" fill="#00468A" />
  <path d="M43.3187 10.2649C44.0219 10.6921 44.9361 10.5497 45.4987 10.0512C44.7252 8.98308 43.8813 7.91492 42.9671 6.91797C42.7561 7.06039 42.6155 7.27402 42.4748 7.48766C41.9826 8.48461 42.3342 9.7664 43.3187 10.2649Z" fill="#00468A" />
  <path d="M38.8889 14.3946C38.3966 15.3916 38.7482 16.6022 39.7328 17.1718C40.7173 17.6703 41.9128 17.3143 42.4754 16.3173C42.9676 15.3204 42.616 14.1098 41.6315 13.5401C40.647 13.0416 39.3811 13.3977 38.8889 14.3946Z" fill="#00468A" />
  <path d="M35.2317 21.3019C34.7394 22.2988 35.091 23.5094 36.0755 24.0791C37.0601 24.5776 38.2556 24.2215 38.8181 23.2245C39.3104 22.2276 38.9588 21.017 37.9743 20.4473C36.9897 19.9489 35.7942 20.3049 35.2317 21.3019Z" fill="#00468A" />
  <path d="M31.5754 28.1388C31.0831 29.1357 31.4348 30.3463 32.4193 30.916C33.4038 31.4145 34.5993 31.0584 35.1619 30.0615C35.6542 29.0645 35.3025 27.8539 34.318 27.2842C33.3335 26.7858 32.138 27.1418 31.5754 28.1388Z" fill="#00468A" />
  <path d="M27.9192 35.046C27.4269 36.0429 27.7785 37.2535 28.763 37.8232C29.7476 38.3217 30.9431 37.9656 31.5056 36.9687C31.9979 35.9717 31.6463 34.7612 30.6618 34.1915C29.6772 33.693 28.4817 34.049 27.9192 35.046Z" fill="#00468A" />
  <path d="M24.3313 41.9532C23.839 42.9502 24.1906 44.1608 25.1751 44.7304C26.1597 45.2289 27.3552 44.8729 27.9178 43.8759C28.41 42.879 28.0584 41.6684 27.0739 41.0987C26.019 40.6002 24.8235 40.9563 24.3313 41.9532Z" fill="#00468A" />
  <path d="M23.3481 48.0059C22.3636 47.5074 21.1681 47.8635 20.6055 48.8605C20.4649 49.0741 20.3945 49.3589 20.3945 49.5726C21.7307 49.8574 23.0668 49.9286 24.403 49.9998C24.4733 49.1453 24.1217 48.362 23.3481 48.0059Z" fill="#00468A" />
  <path d="M34.6701 7.62952C34.1779 8.62647 34.5295 9.83705 35.514 10.4067C36.4985 10.9052 37.694 10.5492 38.2566 9.55221C38.7489 8.55526 38.3973 7.34468 37.4127 6.77499C36.3579 6.27651 35.1624 6.70378 34.6701 7.62952Z" fill="#00468A" />
  <path d="M34.5281 16.4599C35.0204 15.4629 34.6688 14.2524 33.6842 13.6827C32.6997 13.1842 31.5042 13.5403 30.9416 14.5372C30.4493 15.5342 30.801 16.7447 31.7855 17.3144C32.77 17.8129 34.0358 17.4569 34.5281 16.4599Z" fill="#00468A" />
  <path d="M30.8719 23.3671C31.3641 22.3702 31.0125 21.1596 30.028 20.5899C29.0435 20.0914 27.8479 20.4475 27.2854 21.4444C26.7931 22.4414 27.1447 23.652 28.1292 24.2217C29.1841 24.7201 30.3796 24.3641 30.8719 23.3671Z" fill="#00468A" />
  <path d="M27.2146 30.2031C27.7069 29.2061 27.3553 27.9955 26.3708 27.4258C25.3862 26.9274 24.1907 27.2834 23.6281 28.2804C23.1359 29.2773 23.4875 30.4879 24.472 31.0576C25.5269 31.5561 26.7224 31.2 27.2146 30.2031Z" fill="#00468A" />
  <path d="M20.0422 35.1876C19.5499 36.1846 19.9015 37.3951 20.8861 37.9648C21.8706 38.4633 23.0661 38.1072 23.6287 37.1103C24.121 36.1133 23.7693 34.9028 22.7848 34.3331C21.8003 33.8346 20.6048 34.1907 20.0422 35.1876Z" fill="#00468A" />
  <path d="M16.4553 42.0958C15.963 43.0928 16.3146 44.3033 17.2992 44.873C18.2837 45.3715 19.4792 45.0154 20.0418 44.0185C20.534 43.0215 20.1824 41.811 19.1979 41.2413C18.143 40.7428 16.9475 41.0989 16.4553 42.0958Z" fill="#00468A" />
  <path d="M47.3986 27.8531C46.9064 28.8501 47.258 30.0607 48.2425 30.6304C48.5941 30.844 49.0161 30.9152 49.3677 30.844C49.7193 29.5622 49.9303 28.2804 50.0006 26.9986C49.0161 26.5001 47.8909 26.9274 47.3986 27.8531Z" fill="#00468A" />
  <path d="M46.4127 33.9063C45.4282 33.4078 44.2327 33.7639 43.6701 34.7608C43.1779 35.7578 43.5295 36.9684 44.514 37.5381C45.2172 37.9653 46.1315 37.8229 46.694 37.3244C46.8347 37.1108 46.9753 36.826 47.116 36.6123C47.2566 36.3987 47.327 36.1138 47.4676 35.9002C47.5379 35.1169 47.1863 34.3336 46.4127 33.9063Z" fill="#00468A" />
  <path d="M40.0842 41.5968C39.592 42.5225 39.9436 43.7331 40.8578 44.3028C41.8423 43.5195 42.7565 42.5937 43.6707 41.5968C43.4598 41.2407 43.1785 40.9559 42.8269 40.7423C41.8423 40.2438 40.5765 40.5998 40.0842 41.5968Z" fill="#00468A" />
  <path d="M47.6087 16.9581C48.0307 17.1717 48.5933 17.2429 49.0152 17.1717C48.5933 15.8899 48.1713 14.6793 47.5384 13.4688C47.2571 13.6824 46.9758 13.896 46.7649 14.2521C46.2726 15.249 46.6242 16.4596 47.6087 16.9581Z" fill="#00468A" />
  <path d="M43.1086 21.1595C42.6163 22.1564 42.968 23.367 43.9525 23.9367C44.937 24.4352 46.1325 24.0791 46.6951 23.0822C47.2577 22.0852 46.8357 20.8747 45.8512 20.305C44.8667 19.7353 43.6712 20.1625 43.1086 21.1595Z" fill="#00468A" />
  <path d="M39.4514 27.9962C38.9591 28.9931 39.3107 30.2037 40.2953 30.7734C41.2798 31.2719 42.4753 30.9158 43.0379 29.9189C43.5301 28.9219 43.1785 27.7114 42.194 27.1417C41.2095 26.6432 40.014 26.9992 39.4514 27.9962Z" fill="#00468A" />
  <path d="M35.8645 34.9034C35.3722 35.9004 35.7238 37.111 36.7083 37.6806C37.6929 38.1791 38.8884 37.8231 39.451 36.8261C39.9432 35.8292 39.5916 34.6186 38.6071 34.0489C37.5522 33.5504 36.3567 33.9065 35.8645 34.9034Z" fill="#00468A" />
  <path d="M32.2092 41.7389C31.7169 42.7358 32.0685 43.9464 33.0531 44.5161C34.0376 45.0146 35.2331 44.6585 35.7957 43.6616C36.288 42.6646 35.9363 41.4541 34.9518 40.8844C33.9673 40.3859 32.7015 40.8132 32.2092 41.7389Z" fill="#00468A" />
  <path d="M28.5508 48.6466C28.3398 49.0026 28.2695 49.3587 28.3398 49.7147C29.676 49.5723 30.9418 49.2875 32.2076 48.8602C32.067 48.433 31.7154 48.0057 31.2934 47.7921C30.3089 47.2936 29.0431 47.6496 28.5508 48.6466Z" fill="#00468A" />
  <path d="M31.2237 3.71272C32.2082 4.2112 33.4037 3.85515 33.9663 2.8582C34.3179 2.2173 34.2476 1.50519 33.9663 0.864295C33.1224 0.508241 32.2785 0.223398 31.3643 0.00976562C31.0127 0.223398 30.6611 0.508241 30.4501 0.864295C29.8875 1.93246 30.2392 3.14304 31.2237 3.71272Z" fill="#00468A" />
  <path d="M30.3094 9.76654C30.8016 8.76959 30.45 7.55901 29.4655 6.98932C28.481 6.49085 27.2855 6.8469 26.7229 7.84385C26.2306 8.8408 26.5822 10.0514 27.5667 10.6211C28.5513 11.1195 29.7468 10.6923 30.3094 9.76654Z" fill="#00468A" />
  <path d="M26.6531 16.6025C27.1454 15.6055 26.7938 14.3949 25.8092 13.8253C24.8247 13.3268 23.6292 13.6828 23.0666 14.6798C22.5743 15.6767 22.926 16.8873 23.9105 17.457C24.895 17.9555 26.0905 17.5994 26.6531 16.6025Z" fill="#00468A" />
  <path d="M22.9949 23.5097C23.4872 22.5128 23.1356 21.3022 22.151 20.7325C21.1665 20.234 19.971 20.5901 19.4084 21.587C18.9161 22.584 19.2678 23.7945 20.2523 24.3642C21.2368 24.8627 22.5026 24.5067 22.9949 23.5097Z" fill="#00468A" />
  <path d="M19.3387 30.3456C19.8309 29.3487 19.4793 28.1381 18.4948 27.5684C17.5102 27.0699 16.3147 27.426 15.7522 28.423C15.2599 29.4199 15.6115 30.6305 16.596 31.2002C17.6509 31.7699 18.8464 31.3426 19.3387 30.3456Z" fill="#00468A" />
  <path d="M15.7527 37.2529C16.245 36.2559 15.8934 35.0453 14.9088 34.4757C13.9243 33.9772 12.7288 34.3332 12.1662 35.3302C11.674 36.3271 12.0256 37.5377 13.0101 38.1074C13.9946 38.6059 15.1901 38.2498 15.7527 37.2529Z" fill="#00468A" />
  <path d="M12.0953 44.1611C12.5876 43.1641 12.236 41.9535 11.2514 41.3839C10.2669 40.8854 9.07141 41.2414 8.50883 42.2384C8.29786 42.6656 8.22753 43.0929 8.29786 43.5202C8.93077 44.0899 9.70433 44.7308 10.4076 45.2292C11.1108 45.158 11.7437 44.802 12.0953 44.1611Z" fill="#00468A" />
  <path d="M26.0193 3.00092C26.5116 2.00397 26.16 0.793382 25.1754 0.223696C24.1909 -0.274779 22.9954 0.0812755 22.4328 1.07823C21.9406 2.07518 22.2922 3.28576 23.2767 3.85545C24.3316 4.35392 25.5271 3.99787 26.0193 3.00092Z" fill="#00468A" />
  <path d="M22.4334 9.90814C22.9257 8.91119 22.574 7.70061 21.5895 7.13092C20.605 6.63245 19.4095 6.9885 18.8469 7.98545C18.3546 8.9824 18.7062 10.193 19.6908 10.7627C20.6753 11.2611 21.8708 10.9051 22.4334 9.90814Z" fill="#00468A" />
  <path d="M18.7762 16.7451C19.2684 15.7481 18.9168 14.5375 17.9323 13.9678C16.9477 13.4694 15.7522 13.8254 15.1897 14.8224C14.6974 15.8193 15.049 17.0299 16.0335 17.5996C17.0181 18.0981 18.2136 17.742 18.7762 16.7451Z" fill="#00468A" />
  <path d="M15.1199 23.6523C15.6122 22.6553 15.2606 21.4448 14.276 20.8751C13.2915 20.3766 12.096 20.7326 11.5334 21.7296C11.0411 22.7265 11.3928 23.9371 12.3773 24.5068C13.3618 25.0053 14.6276 24.6492 15.1199 23.6523Z" fill="#00468A" />
  <path d="M11.4637 30.5595C11.9559 29.5626 11.6043 28.352 10.6198 27.7823C9.63525 27.2838 8.43975 27.6399 7.87716 28.6368C7.38489 29.6338 7.73651 30.8444 8.72104 31.414C9.70557 31.9125 10.9714 31.4852 11.4637 30.5595Z" fill="#00468A" />
  <path d="M7.80545 37.3954C8.29772 36.3985 7.9461 35.1879 6.96157 34.6182C5.97704 34.1198 4.78154 34.4758 4.21896 35.4728C3.72669 36.4697 4.07831 37.6803 5.06284 38.25C6.11769 38.7484 7.31319 38.3924 7.80545 37.3954Z" fill="#00468A" />
</svg>
