<svg width="50" height="50" viewBox="0 0 50 50" fill="none" xmlns="http://www.w3.org/2000/svg">
<path fill-rule="evenodd" clip-rule="evenodd" d="M25 0L32.7168 2.41241L40.4509 4.77457L45.203 11.0401L50 17.2746L49.9722 25L50 32.7254L45.203 38.9599L40.4509 45.2254L32.7168 47.5876L25 50L17.2832 47.5876L9.54915 45.2254L4.79704 38.9599L0 32.7254L0.0277717 25L0 17.2746L4.79704 11.0401L9.54915 4.77457L17.2832 2.41241L25 0ZM32.1326 4.32518L39.2481 6.49844L43.6094 12.2487L43.6094 12.2487L43.6179 12.2597L47.9976 17.9518L47.9722 24.9928L47.9722 25L47.9722 25.0072L47.9976 32.0482L43.6179 37.7403L43.6178 37.7402L43.6094 37.7513L39.2481 43.5016L32.1326 45.6748L32.1326 45.6748L32.1201 45.6787L25 47.9045L17.8799 45.6787L17.8799 45.6787L17.8674 45.6748L10.7519 43.5016L6.39055 37.7513L6.39059 37.7513L6.38213 37.7403L2.00245 32.0482L2.02776 25.0072L2.02778 25L2.02776 24.9928L2.00245 17.9518L6.38213 12.2597L6.38217 12.2598L6.39055 12.2487L10.7519 6.49844L17.8674 4.32518L17.8674 4.32522L17.8799 4.32131L25 2.09545L32.1201 4.32131L32.1201 4.32135L32.1326 4.32518ZM31.1735 6.92993L25 5L18.8265 6.92993L12.6393 8.81966L8.83764 13.8321L5 18.8197L5.02222 25L5 31.1803L8.83764 36.1679L12.6393 41.1803L18.8265 43.0701L25 45L31.1735 43.0701L37.3607 41.1803L41.1624 36.1679L45 31.1803L44.9778 25L45 18.8197L41.1624 13.8321L37.3607 8.81966L31.1735 6.92993ZM36.158 10.5435L30.5893 8.8427L30.5767 8.83886L30.5767 8.83882L25 7.09545L19.4233 8.83882L19.4107 8.84274L19.4107 8.8427L13.842 10.5435L10.4311 15.0407L10.4228 15.0517L10.4227 15.0517L7.00245 19.4969L7.0222 24.9928L7.02223 25L7.0222 25.0072L7.00245 30.5031L10.4227 34.9483L10.4312 34.9593L10.4311 34.9593L13.842 39.4565L19.4107 41.1573L19.4233 41.1611L19.4233 41.1612L25 42.9045L30.5767 41.1612L30.5893 41.1573L30.5893 41.1573L36.158 39.4565L39.5689 34.9593L39.5772 34.9483L39.5773 34.9483L42.9976 30.5031L42.9778 25.0072L42.9778 25L42.9778 24.9928L42.9976 19.4969L39.5773 15.0517L39.5688 15.0407L39.5689 15.0407L36.158 10.5435ZM25 10L29.6301 11.4474L34.2705 12.8647L37.1218 16.6241L40 20.3647L39.9833 25L40 29.6353L37.1218 33.3759L34.2705 37.1353L29.6301 38.5526L25 40L20.3699 38.5526L15.7295 37.1353L12.8782 33.3759L10 29.6353L10.0167 25L10 20.3647L12.8782 16.6241L15.7295 12.8647L20.3699 11.4474L25 10ZM29.0459 13.3602L33.0678 14.5886L35.5283 17.8327L35.5282 17.8327L35.5367 17.8437L37.9976 21.042L37.9833 24.9928L37.9833 25L37.9833 25.0072L37.9976 28.958L35.5367 32.1563L35.5366 32.1563L35.5283 32.1673L33.0678 35.4114L29.0459 36.6398L29.0459 36.6397L29.0334 36.6437L25 37.9045L20.9666 36.6437L20.9667 36.6436L20.9541 36.6398L16.9322 35.4114L14.4717 32.1673L14.4718 32.1673L14.4633 32.1563L12.0024 28.958L12.0167 25.0072L12.0167 25L12.0167 24.9928L12.0024 21.042L14.4633 17.8437L14.4634 17.8437L14.4717 17.8327L16.9322 14.5886L20.9541 13.3602L20.9541 13.3603L20.9666 13.3563L25 12.0955L29.0334 13.3563L29.0333 13.3564L29.0459 13.3602ZM25 15L28.0867 15.965L31.1803 16.9098L33.0812 19.416L35 21.9098L34.9889 25L35 28.0902L33.0812 30.584L31.1803 33.0902L28.0867 34.035L25 35L21.9133 34.035L18.8197 33.0902L16.9188 30.584L15 28.0902L15.0111 25L15 21.9098L16.9188 19.416L18.8197 16.9098L21.9133 15.965L25 15ZM27.5025 17.8777L29.9776 18.6337L31.4877 20.6246L31.4876 20.6247L31.4961 20.6357L32.9976 22.587L32.9889 24.9928L32.9889 25L32.9889 25.0072L32.9976 27.413L31.4961 29.3643L31.4961 29.3643L31.4877 29.3754L29.9776 31.3663L27.5025 32.1223L27.5025 32.1222L27.49 32.1261L25 32.9045L22.51 32.1261L22.51 32.1261L22.4975 32.1223L20.0224 31.3663L18.5123 29.3754L18.5124 29.3753L18.5039 29.3643L17.0024 27.413L17.0111 25.0072L17.0111 25L17.0111 24.9928L17.0024 22.587L18.5039 20.6357L18.5039 20.6357L18.5123 20.6246L20.0224 18.6337L22.4975 17.8777L22.4975 17.8778L22.51 17.8739L25 17.0955L27.49 17.8739L27.49 17.8739L27.5025 17.8777Z" fill="#00468A"/>
</svg>
