<svg width="50" height="50" viewBox="0 0 50 50" fill="none" xmlns="http://www.w3.org/2000/svg">
  <path fill-rule="evenodd" clip-rule="evenodd" d="M43.1156 0.278417L42.6234 0L42.1311 0.278417L35.724 3.902L28.8798 0.265749L28.4106 0.0164808L27.9414 0.265749L21.0894 3.9061L14.4563 0.271855L13.9758 0.00859666L13.4953 0.271855L6.89775 3.88656L1.04585 0.296474L0 2.00123L6.34647 5.89473L6.84104 6.19814L7.34989 5.91935L13.9758 2.28911L20.6016 5.91935L21.0748 6.1786L21.5513 5.92545L28.4106 2.28122L35.2699 5.92545L35.7541 6.1827L36.2313 5.91278L42.6234 2.2977L49.0154 5.91278L49.9999 4.17191L43.1156 0.278417ZM42.6234 8.7605L43.1157 9.03891L50 12.9324L49.0154 14.6733L42.6234 11.0582L36.2314 14.6733L35.7541 14.9432L35.2699 14.6859L28.4106 11.0417L21.5513 14.6859L21.0748 14.9391L20.6017 14.6798L13.9758 11.0496L7.3499 14.6798L6.84105 14.9586L6.34648 14.6552L1.2219e-05 10.7617L1.04586 9.05697L6.89776 12.6471L13.4953 9.03235L13.9758 8.76909L14.4563 9.03235L21.0895 12.6666L27.9414 9.02624L28.4106 8.77698L28.8798 9.02624L35.724 12.6625L42.1311 9.03891L42.6234 8.7605ZM43.1157 17.7994L42.6234 17.521L42.1311 17.7994L35.724 21.423L28.8798 17.7868L28.4106 17.5375L27.9414 17.7868L21.0895 21.4271L14.4563 17.7929L13.9758 17.5296L13.4953 17.7929L6.89776 21.4076L1.04586 17.8175L1.2219e-05 19.5222L6.34648 23.4157L6.84105 23.7192L7.3499 23.4404L13.9758 19.8101L20.6017 23.4404L21.0748 23.6996L21.5513 23.4465L28.4106 19.8022L35.2699 23.4465L35.7541 23.7037L36.2314 23.4338L42.6234 19.8187L49.0154 23.4338L50 21.6929L43.1157 17.7994ZM43.1157 26.56L42.6234 26.2815L42.1311 26.56L35.724 30.1835L28.8798 26.5473L28.4106 26.298L27.9414 26.5473L21.0895 30.1876L14.4563 26.5534L13.9758 26.2901L13.4953 26.5534L6.89776 30.1681L1.04586 26.578L1.2219e-05 28.2828L6.34648 32.1763L6.84105 32.4797L7.3499 32.2009L13.9758 28.5706L20.6017 32.2009L21.0748 32.4601L21.5513 32.207L28.4106 28.5628L35.2699 32.207L35.7541 32.4642L36.2314 32.1943L42.6234 28.5792L49.0154 32.1943L50 30.4535L43.1157 26.56ZM43.1157 35.3205L42.6234 35.0421L42.1311 35.3205L35.724 38.9441L28.8798 35.3078L28.4106 35.0585L27.9414 35.3078L21.0895 38.9482L14.4563 35.3139L13.9758 35.0507L13.4953 35.3139L6.89776 38.9286L1.04586 35.3385L1.2219e-05 37.0433L6.34648 40.9368L6.84105 41.2402L7.3499 40.9614L13.9758 37.3312L20.6017 40.9614L21.0748 41.2207L21.5513 40.9675L28.4106 37.3233L35.2699 40.9675L35.7541 41.2248L36.2314 40.9549L42.6234 37.3398L49.0154 40.9549L50 39.214L43.1157 35.3205ZM42.6234 43.8026L43.1157 44.081L50 47.9745L49.0154 49.7154L42.6234 46.1003L36.2314 49.7154L35.7541 49.9853L35.2699 49.728L28.4106 46.0838L21.5513 49.728L21.0748 49.9812L20.6017 49.7219L13.9758 46.0917L7.3499 49.7219L6.84105 50.0007L6.34648 49.6973L1.2219e-05 45.8038L1.04586 44.0991L6.89776 47.6891L13.4953 44.0744L13.9758 43.8112L14.4563 44.0744L21.0895 47.7087L27.9414 44.0683L28.4106 43.8191L28.8798 44.0683L35.724 47.7046L42.1311 44.081L42.6234 43.8026Z" fill="#00468A" />
</svg>
