<svg width="50" height="50" viewBox="0 0 50 50" fill="none" xmlns="http://www.w3.org/2000/svg">
  <circle cx="25" cy="25" r="4" fill="#00468A" />
  <circle cx="25" cy="15" r="3" fill="#00468A" />
  <circle cx="25" cy="7" r="2" fill="#00468A" />
  <circle cx="25" cy="1" r="1" fill="#00468A" />
  <circle cx="35" cy="25" r="3" transform="rotate(90 35 25)" fill="#00468A" />
  <circle cx="43" cy="25" r="2" transform="rotate(90 43 25)" fill="#00468A" />
  <circle cx="49" cy="25" r="1" transform="rotate(90 49 25)" fill="#00468A" />
  <circle cx="25" cy="35" r="3" transform="rotate(-180 25 35)" fill="#00468A" />
  <circle cx="25" cy="43" r="2" transform="rotate(-180 25 43)" fill="#00468A" />
  <circle cx="25" cy="49" r="1" transform="rotate(-180 25 49)" fill="#00468A" />
  <circle cx="15" cy="25" r="3" transform="rotate(-90 15 25)" fill="#00468A" />
  <circle cx="7" cy="25" r="2" transform="rotate(-90 7 25)" fill="#00468A" />
  <circle cx="1" cy="25" r="1" transform="rotate(-90 1 25)" fill="#00468A" />
  <circle cx="17" cy="17" r="3" fill="#00468A" />
  <circle cx="17" cy="33" r="3" fill="#00468A" />
  <circle cx="33" cy="17" r="3" fill="#00468A" />
  <circle cx="33" cy="33" r="3" fill="#00468A" />
  <circle cx="10" cy="13" r="2" fill="#00468A" />
  <circle cx="10" cy="37" r="2" fill="#00468A" />
  <circle cx="40" cy="13" r="2" fill="#00468A" />
  <circle cx="40" cy="37" r="2" fill="#00468A" />
  <circle cx="5" cy="10" r="1" fill="#00468A" />
  <circle cx="5" cy="40" r="1" fill="#00468A" />
  <circle cx="45" cy="10" r="1" fill="#00468A" />
  <circle cx="45" cy="40" r="1" fill="#00468A" />
</svg>
