<svg width="24" height="34" viewBox="0 0 24 34" fill="none" xmlns="http://www.w3.org/2000/svg">
<path d="M11.5757 21.7747L13.2727 20.9316V33.9998H11.5757V21.7747Z" fill="#B3B3B3"/>
<path d="M11.5756 21.7754H11.1514V33.5789L11.5756 34.0004V21.7754Z" fill="#CCCCCC"/>
<path d="M1.69727 13.1769L23.5 1.5V15L1.69727 26.6666V13.1769Z" fill="#00468A"/>
<path d="M1.69697 13.1771V27.6254L0 27.0883V12.334L1.69697 13.1771Z" fill="#B3B3B3"/>
<path d="M24 15.5L1.69727 27.6244V26.6658L23.5 15L24 15.5Z" fill="#CCCCCC"/>
<path d="M24 15.5V1.5L23 1.31055V15.2411L24 15.5Z" fill="#878787"/>
<path d="M1.69697 13.1759L24 1.5L23 0.5L0 12.3328L1.69697 13.1759Z" fill="#CCCCCC"/>
<path d="M6.08849 19.201C5.79695 19.3627 5.57768 19.3769 5.43066 19.2438C5.28365 19.1107 5.22117 18.8337 5.24322 18.413C5.24824 18.3171 5.2569 18.2166 5.2692 18.1116C5.28384 18.0052 5.30183 17.8995 5.32318 17.7946C5.34686 17.6884 5.375 17.5836 5.40759 17.4802C5.44266 17.3729 5.48423 17.271 5.53231 17.1745C5.62381 16.9842 5.73195 16.8221 5.85672 16.6883C5.98396 16.5505 6.13999 16.4253 6.3248 16.3125C6.4019 16.2671 6.46392 16.2289 6.51085 16.1977C6.55777 16.1665 6.59427 16.1398 6.62034 16.1176C6.64889 16.0914 6.66941 16.0671 6.68191 16.0447C6.69441 16.0223 6.70369 15.9964 6.70975 15.9672L7.08409 15.7597C7.07398 15.8662 7.05545 15.9605 7.0285 16.0426C7.00402 16.1208 6.96617 16.1948 6.91496 16.2646C6.86622 16.3304 6.80281 16.3953 6.72473 16.4592C6.64678 16.5205 6.55163 16.5862 6.43926 16.6563C6.29876 16.7445 6.17979 16.8324 6.08235 16.92C5.98491 17.0077 5.90441 17.0962 5.84084 17.1858C5.77727 17.2753 5.72713 17.3677 5.69043 17.4631C5.65373 17.5584 5.62718 17.6546 5.61077 17.7516L5.61777 17.7477C5.68893 17.5996 5.78217 17.4626 5.89747 17.3367C6.01291 17.208 6.15109 17.0991 6.31202 17.0099C6.42864 16.9453 6.5346 16.9111 6.62991 16.9074C6.72535 16.901 6.80569 16.9237 6.87091 16.9755C6.93847 17.026 6.98872 17.1041 7.02167 17.21C7.05462 17.3158 7.06698 17.4473 7.05875 17.6044C7.05037 17.7642 7.02171 17.9223 6.97275 18.0787C6.92612 18.2338 6.86064 18.3813 6.77632 18.5211C6.69433 18.6597 6.59473 18.7886 6.47751 18.9078C6.36277 19.0232 6.2331 19.1209 6.08849 19.201ZM6.10733 18.8415C6.19596 18.7924 6.27404 18.7284 6.34158 18.6496C6.40912 18.5708 6.46569 18.4852 6.5113 18.3927C6.55692 18.3002 6.59128 18.2061 6.61441 18.1106C6.64 18.011 6.65517 17.916 6.65992 17.8255C6.66453 17.7376 6.6585 17.6582 6.64183 17.5873C6.6275 17.5151 6.60095 17.46 6.56218 17.422C6.52354 17.3814 6.47255 17.3605 6.4092 17.3594C6.34585 17.3583 6.26986 17.3824 6.18123 17.4315C6.0926 17.4806 6.01466 17.5419 5.9474 17.6154C5.88014 17.6889 5.82385 17.7692 5.77852 17.8564C5.73332 17.9409 5.69807 18.0303 5.67275 18.1245C5.64977 18.2173 5.63597 18.3077 5.63137 18.3956C5.62662 18.4862 5.63128 18.5702 5.64533 18.6477C5.66185 18.7213 5.68929 18.7811 5.72765 18.8271C5.766 18.873 5.81671 18.8992 5.87978 18.9056C5.94286 18.912 6.01871 18.8907 6.10733 18.8415ZM7.45482 16.3842L7.85364 16.1631L7.77932 17.5812L7.78632 17.5773L8.65479 15.7191L9.14808 15.4456L9.03985 17.5108L8.64102 17.7319L8.71597 16.3018L8.70897 16.3057L7.82238 18.1856L7.34658 18.4494L7.45482 16.3842ZM9.436 16.9732C9.49664 16.9396 9.55504 16.8839 9.61119 16.8062C9.66968 16.7273 9.71296 16.6361 9.74103 16.5326C9.75767 16.4742 9.77075 16.4192 9.78026 16.3673C9.79224 16.3116 9.80203 16.2544 9.80962 16.1959C9.81955 16.1361 9.82749 16.071 9.83346 16.0004C9.83942 15.9299 9.84594 15.8487 9.85301 15.7569C9.86009 15.665 9.86663 15.5619 9.87263 15.4474C9.8811 15.3289 9.88953 15.1898 9.8979 15.03L11.3987 14.1981L11.2905 16.2632L10.8917 16.4843L10.9821 14.7587L10.2859 15.1446C10.2769 15.3177 10.2665 15.4721 10.2549 15.6078C10.2457 15.7396 10.235 15.858 10.2227 15.9631C10.2127 16.0669 10.201 16.16 10.1876 16.2424C10.1744 16.3221 10.1581 16.3958 10.1387 16.4634C10.1189 16.5391 10.0946 16.6133 10.0659 16.6861C10.0396 16.7549 10.0009 16.8242 9.94967 16.894C9.90093 16.9598 9.83512 17.0273 9.75223 17.0965C9.67168 17.1644 9.5661 17.2346 9.43549 17.307C9.39817 17.3277 9.36675 17.3438 9.34124 17.3554C9.31558 17.3696 9.29007 17.3811 9.26469 17.39L9.28269 17.0465C9.30807 17.0376 9.33002 17.0293 9.34854 17.0216C9.36953 17.01 9.39868 16.9938 9.436 16.9732ZM12.5491 15.6199C12.2575 15.7815 12.0382 15.7957 11.8912 15.6626C11.7442 15.5295 11.6817 15.2526 11.7038 14.8318C11.7088 14.7359 11.7175 14.6355 11.7298 14.5304C11.7444 14.424 11.7624 14.3184 11.7837 14.2135C11.8074 14.1073 11.8356 14.0025 11.8682 13.8991C11.9032 13.7917 11.9448 13.6898 11.9929 13.5933C12.0844 13.403 12.1925 13.2409 12.3173 13.1071C12.4445 12.9694 12.6006 12.8441 12.7854 12.7313C12.8625 12.686 12.9245 12.6477 12.9714 12.6166C13.0183 12.5854 13.0548 12.5587 13.0809 12.5365C13.1095 12.5103 13.13 12.486 13.1425 12.4635C13.155 12.4411 13.1643 12.4153 13.1703 12.3861L13.5447 12.1786C13.5346 12.285 13.516 12.3793 13.4891 12.4615C13.4646 12.5397 13.4267 12.6137 13.3755 12.6834C13.3268 12.7492 13.2634 12.8141 13.1853 12.8781C13.1074 12.9394 13.0122 13.0051 12.8998 13.0751C12.7593 13.1633 12.6404 13.2513 12.5429 13.3389C12.4455 13.4265 12.365 13.5151 12.3014 13.6046C12.2378 13.6942 12.1877 13.7866 12.151 13.8819C12.1143 13.9772 12.0877 14.0734 12.0713 14.1704L12.0783 14.1665C12.1495 14.0185 12.2427 13.8815 12.358 13.7555C12.4735 13.6269 12.6117 13.518 12.7726 13.4288C12.8892 13.3641 12.9952 13.33 13.0905 13.3262C13.1859 13.3199 13.2663 13.3426 13.3315 13.3943C13.399 13.4448 13.4493 13.523 13.4822 13.6288C13.5152 13.7347 13.5276 13.8661 13.5193 14.0233C13.5109 14.183 13.4823 14.3411 13.4333 14.4976C13.3867 14.6527 13.3212 14.8002 13.2369 14.94C13.1549 15.0785 13.0553 15.2074 12.9381 15.3267C12.8233 15.442 12.6937 15.5397 12.5491 15.6199ZM12.5679 15.2604C12.6565 15.2113 12.7346 15.1473 12.8022 15.0685C12.8697 14.9897 12.9263 14.904 12.9719 14.8115C13.0175 14.719 13.0519 14.625 13.075 14.5294C13.1006 14.4299 13.1157 14.3349 13.1205 14.2443C13.1251 14.1564 13.1191 14.077 13.1024 14.0061C13.0881 13.9339 13.0615 13.8788 13.0227 13.8408C12.9841 13.8002 12.9331 13.7793 12.8698 13.7783C12.8064 13.7772 12.7304 13.8012 12.6418 13.8503C12.5532 13.8995 12.4752 13.9608 12.408 14.0342C12.3407 14.1077 12.2844 14.1881 12.2391 14.2752C12.1939 14.3598 12.1586 14.4491 12.1333 14.5433C12.1103 14.6362 12.0965 14.7266 12.0919 14.8145C12.0872 14.905 12.0918 14.989 12.1059 15.0666C12.1224 15.1402 12.1499 15.1999 12.1882 15.2459C12.2266 15.2919 12.2773 15.3181 12.3404 15.3245C12.4034 15.3309 12.4793 15.3095 12.5679 15.2604ZM14.6229 14.4704C14.4783 14.5505 14.3502 14.5956 14.2387 14.6057C14.1297 14.6119 14.0381 14.589 13.9638 14.5371C13.8918 14.4839 13.8384 14.4023 13.8034 14.2924C13.7707 14.1813 13.7585 14.0458 13.7669 13.886C13.7751 13.7289 13.8026 13.5728 13.8492 13.4176C13.8982 13.2612 13.9636 13.1137 14.0456 12.9752C14.13 12.8354 14.2295 12.7078 14.3442 12.5925C14.4614 12.4732 14.5924 12.3735 14.737 12.2934C14.8816 12.2132 15.0084 12.1701 15.1174 12.1639C15.2289 12.1538 15.3206 12.1754 15.3925 12.2286C15.4668 12.2805 15.5203 12.3621 15.553 12.4732C15.588 12.5831 15.6014 12.7166 15.5931 12.8737C15.5847 13.0335 15.5561 13.1916 15.5071 13.348C15.4605 13.5032 15.395 13.6506 15.3107 13.7905C15.2287 13.929 15.1291 14.0579 15.0119 14.1772C14.8971 14.2925 14.7675 14.3902 14.6229 14.4704ZM14.6417 14.1109C14.7303 14.0617 14.8084 13.9978 14.876 13.919C14.9435 13.8402 15.0001 13.7545 15.0457 13.662C15.0913 13.5695 15.1257 13.4754 15.1488 13.3799C15.1744 13.2804 15.1895 13.1853 15.1943 13.0948C15.1989 13.0069 15.193 12.9249 15.1766 12.8486C15.1626 12.7711 15.1363 12.7107 15.0978 12.6674C15.0595 12.6214 15.0087 12.5952 14.9457 12.5888C14.8826 12.5824 14.8067 12.6037 14.7181 12.6529C14.6295 12.702 14.5514 12.766 14.4839 12.8448C14.4163 12.9236 14.3598 13.0092 14.3141 13.1017C14.2687 13.1916 14.2331 13.2863 14.2075 13.3858C14.1843 13.484 14.1703 13.5771 14.1657 13.6649C14.161 13.7555 14.1657 13.8395 14.1797 13.9171C14.1962 13.9906 14.2237 14.0504 14.262 14.0964C14.3004 14.1423 14.3511 14.1685 14.4142 14.1749C14.4772 14.1813 14.5531 14.16 14.6417 14.1109ZM15.9892 11.6535L16.367 11.4441L16.3524 11.7237L16.3594 11.7198C16.4216 11.569 16.5042 11.4404 16.6072 11.3343C16.7102 11.2254 16.8201 11.1387 16.9367 11.074C17.079 10.9952 17.2011 10.9559 17.3029 10.9563C17.4073 10.9528 17.4918 10.9822 17.5565 11.0446C17.6213 11.1044 17.6677 11.1911 17.6957 11.3049C17.7237 11.4186 17.7337 11.5514 17.7258 11.7032C17.7185 11.8417 17.6951 11.9852 17.6557 12.1338C17.6185 12.2811 17.5646 12.4234 17.494 12.5608C17.4259 12.6943 17.3412 12.8188 17.24 12.9343C17.139 13.0472 17.022 13.1405 16.8891 13.2142C16.8308 13.2465 16.7728 13.2722 16.7152 13.2912C16.6575 13.3128 16.6025 13.3252 16.5502 13.3283C16.498 13.3314 16.4496 13.3259 16.405 13.3119C16.3629 13.2938 16.3282 13.2652 16.3008 13.2261L16.2938 13.23L16.2398 14.2606L15.841 14.4817L15.9892 11.6535ZM17.3274 11.9163C17.3322 11.8231 17.3265 11.7384 17.3101 11.6621C17.2937 11.5859 17.2663 11.5261 17.2278 11.4828C17.1894 11.4368 17.1398 11.4113 17.0789 11.4063C17.0182 11.3986 16.947 11.4174 16.8654 11.4626C16.6975 11.5557 16.5669 11.6927 16.4736 11.8737C16.3826 12.0534 16.3314 12.2538 16.3198 12.4748C16.3144 12.5787 16.3198 12.67 16.336 12.7489C16.3547 12.8239 16.3846 12.881 16.4255 12.9204C16.4665 12.9597 16.5163 12.9812 16.575 12.9849C16.636 12.9873 16.7074 12.9659 16.789 12.9206C16.8799 12.8702 16.958 12.8062 17.0232 12.7287C17.0884 12.6512 17.1426 12.5682 17.1857 12.4796C17.2314 12.3871 17.2646 12.2937 17.2854 12.1994C17.3086 12.1012 17.3226 12.0068 17.3274 11.9163ZM18.1687 13.0595L17.8014 13.2631L17.8521 12.2964L18.0795 12.1704C18.115 12.1403 18.1487 12.1023 18.1806 12.0562C18.239 11.9772 18.2823 11.886 18.3104 11.7825C18.327 11.7242 18.3401 11.6691 18.3496 11.6173C18.3616 11.5615 18.3714 11.5044 18.379 11.4459C18.3889 11.386 18.3969 11.3209 18.4028 11.2504C18.4088 11.1798 18.4153 11.0986 18.4224 11.0068C18.4295 10.915 18.436 10.8118 18.442 10.6973C18.4505 10.5788 18.4589 10.4397 18.4673 10.2799L19.9681 9.44798L19.8777 11.1736L20.1995 10.9952L20.1489 11.9619L19.7815 12.1655L19.8144 11.5384L18.2016 12.4323L18.1687 13.0595ZM19.5515 10.0086L18.8518 10.3964C18.8427 10.5695 18.8335 10.7233 18.8242 10.8577C18.815 10.9895 18.8043 11.108 18.792 11.213C18.782 11.3168 18.7704 11.4099 18.757 11.4923C18.7438 11.572 18.7274 11.6457 18.708 11.7134C18.6966 11.7585 18.6842 11.8016 18.6707 11.8427L19.4788 11.3947L19.5515 10.0086Z" fill="white"/>
</svg>
