<svg width="29" height="35" viewBox="0 0 29 35" fill="none" xmlns="http://www.w3.org/2000/svg">
<path d="M14.1797 22.9465L15.8479 22.1152V34.9992H14.1797V22.9465Z" fill="#B3B3B3"/>
<path d="M14.1797 22.9473H13.7627V34.5844L14.1797 35V22.9473Z" fill="#CCCCCC"/>
<path d="M1.66846 15.4552L29 0.492188V14.2949L1.66846 28.7547V15.4552Z" fill="#00468A"/>
<path d="M1.66821 15.4562V29.7009L0 29.1714V14.625L1.66821 15.4562Z" fill="#B3B3B3"/>
<path d="M29 15.282L1.66846 29.7V28.7549L28.0169 14.7891L29 15.282Z" fill="#CCCCCC"/>
<path d="M29.0001 15.2808V0.492188L28.0171 0.985141V14.7878L29.0001 15.2808Z" fill="#878787"/>
<path d="M1.66821 15.455L29 0.492953L27.0339 0L0 14.6238L1.66821 15.455Z" fill="#CCCCCC"/>
<path d="M7.55527 19.0089C7.54564 18.8901 7.50518 18.8195 7.4339 18.7969C7.36509 18.7704 7.2747 18.7882 7.16275 18.8503C7.11144 18.8787 7.05607 18.9197 6.99665 18.9734C6.93736 19.0243 6.88177 19.0913 6.82986 19.1744C6.77809 19.2548 6.73329 19.3533 6.69548 19.47C6.6578 19.5839 6.63485 19.7195 6.62661 19.8766C6.62215 19.9618 6.62584 20.0425 6.6377 20.1187C6.6519 20.1935 6.67591 20.2539 6.70973 20.2998C6.74589 20.3444 6.79318 20.3712 6.85159 20.3802C6.91013 20.3865 6.98255 20.3658 7.06885 20.318C7.18547 20.2533 7.28325 20.159 7.36222 20.0351C7.44351 19.9099 7.49739 19.7675 7.52387 19.6081L7.92269 19.387C7.87128 19.6766 7.77067 19.9328 7.62086 20.1555C7.47352 20.3742 7.28324 20.5482 7.05001 20.6775C6.90774 20.7563 6.78319 20.7995 6.67636 20.807C6.572 20.8106 6.48495 20.7864 6.4152 20.7346C6.34559 20.6801 6.29438 20.5986 6.26157 20.4901C6.23109 20.3803 6.21983 20.2495 6.22779 20.0977C6.23588 19.9432 6.26215 19.7877 6.30658 19.6312C6.35101 19.4747 6.41313 19.3265 6.49293 19.1866C6.57287 19.0441 6.66911 18.9145 6.78166 18.7978C6.89668 18.6771 7.02883 18.5754 7.1781 18.4927C7.28305 18.4345 7.38134 18.3955 7.47295 18.3758C7.56704 18.3521 7.64863 18.3508 7.71773 18.372C7.78915 18.3919 7.84574 18.4355 7.88751 18.5028C7.92927 18.5702 7.95146 18.6652 7.95409 18.7878L7.55527 19.0089ZM8.11508 18.0276L8.55239 17.7852L8.94388 19.0653L8.95087 19.0614L9.48998 17.2655L9.9063 17.0347L9.08901 19.6015C9.05148 19.7128 9.01415 19.8201 8.97703 19.9235C8.94225 20.0255 8.89985 20.1214 8.84986 20.2111C8.80206 20.3023 8.74336 20.3852 8.67377 20.46C8.60404 20.5374 8.51669 20.6053 8.41174 20.6634C8.31845 20.7151 8.22674 20.7582 8.13662 20.7927L8.15671 20.4092C8.18909 20.3964 8.22029 20.3843 8.25033 20.3728C8.28024 20.364 8.31151 20.3505 8.34416 20.3324C8.39081 20.3066 8.42964 20.2786 8.46066 20.2485C8.49168 20.2183 8.51722 20.1848 8.53727 20.1478C8.55952 20.1122 8.57854 20.0732 8.59435 20.0309C8.61016 19.9885 8.62508 19.9414 8.63912 19.8897L8.69297 19.7047L8.11508 18.0276ZM10.1391 16.9057L11.8359 15.9651L11.7277 18.0303L11.3288 18.2514L11.4193 16.5257L10.5202 17.0241L10.4297 18.7497L10.0309 18.9708L10.1391 16.9057ZM13.4647 15.8884C13.4638 15.819 13.4535 15.7576 13.4336 15.7039C13.4161 15.649 13.3888 15.6085 13.3517 15.5826C13.317 15.5527 13.2725 15.5386 13.218 15.5403C13.1661 15.5381 13.1062 15.5557 13.0386 15.5932C12.9686 15.632 12.9037 15.6822 12.8439 15.7438C12.7865 15.8015 12.7355 15.8672 12.6909 15.9411C12.6487 16.011 12.6131 16.0864 12.5839 16.1672C12.5571 16.2467 12.5405 16.3257 12.5341 16.4042L13.4647 15.8884ZM12.5184 16.7038C12.5143 16.7837 12.5195 16.8557 12.5343 16.92C12.5514 16.9829 12.5783 17.0313 12.615 17.0653C12.6517 17.0992 12.6995 17.1167 12.7583 17.1177C12.8173 17.116 12.8887 17.0919 12.9727 17.0454C13.0893 16.9808 13.1841 16.9011 13.257 16.8064C13.3323 16.7077 13.3905 16.5914 13.4315 16.4575L13.8093 16.2481C13.7825 16.3716 13.7411 16.4915 13.6852 16.6078C13.6293 16.7241 13.5636 16.8329 13.488 16.9343C13.4127 17.0329 13.3287 17.1221 13.2362 17.2018C13.1459 17.2829 13.0518 17.3506 12.9539 17.4049C12.8116 17.4838 12.687 17.5269 12.5802 17.5345C12.4734 17.542 12.384 17.5191 12.3121 17.4659C12.2424 17.4114 12.1913 17.3286 12.1586 17.2174C12.1283 17.1049 12.1173 16.9688 12.1257 16.809C12.1334 16.6626 12.1604 16.5131 12.2069 16.3606C12.2559 16.2042 12.3203 16.056 12.4001 15.9161C12.4823 15.7723 12.5786 15.6413 12.689 15.5233C12.7994 15.4052 12.9222 15.3087 13.0575 15.2337C13.1997 15.1548 13.325 15.119 13.4333 15.1262C13.5441 15.1294 13.6339 15.1663 13.7027 15.2367C13.7715 15.3072 13.8183 15.4066 13.8433 15.535C13.8708 15.6594 13.8723 15.8034 13.8479 15.9669L12.5184 16.7038ZM14.2218 14.6426L14.5997 14.4331L14.585 14.7128L14.592 14.7089C14.6543 14.558 14.7369 14.4295 14.8398 14.3233C14.9429 14.2144 15.0527 14.1277 15.1694 14.0631C15.3116 13.9842 15.4337 13.945 15.5356 13.9454C15.6399 13.9418 15.7245 13.9713 15.7891 14.0337C15.8539 14.0934 15.9003 14.1802 15.9283 14.2939C15.9564 14.4077 15.9664 14.5405 15.9584 14.6923C15.9512 14.8307 15.9278 14.9743 15.8883 15.1229C15.8511 15.2701 15.7973 15.4125 15.7266 15.5499C15.6585 15.6833 15.5739 15.8078 15.4727 15.9234C15.3717 16.0362 15.2547 16.1295 15.1217 16.2032C15.0634 16.2355 15.0055 16.2612 14.9479 16.2802C14.8901 16.3019 14.8351 16.3143 14.7829 16.3174C14.7306 16.3205 14.6822 16.315 14.6377 16.3009C14.5956 16.2829 14.5608 16.2543 14.5335 16.2152L14.5265 16.219L14.4725 17.2496L14.0736 17.4707L14.2218 14.6426ZM15.56 14.9053C15.5649 14.8121 15.5591 14.7274 15.5428 14.6512C15.5264 14.5749 15.4989 14.5151 15.4604 14.4718C15.4221 14.4259 15.3725 14.4004 15.3116 14.3953C15.2509 14.3876 15.1797 14.4064 15.098 14.4517C14.9301 14.5447 14.7995 14.6818 14.7062 14.8628C14.6153 15.0425 14.564 15.2428 14.5525 15.4638C14.547 15.5677 14.5524 15.6591 14.5687 15.738C14.5874 15.8129 14.6172 15.8701 14.6582 15.9094C14.6991 15.9488 14.749 15.9703 14.8077 15.974C14.8687 15.9763 14.94 15.9549 15.0216 15.9097C15.1126 15.8592 15.1907 15.7953 15.2559 15.7178C15.3211 15.6402 15.3753 15.5572 15.4184 15.4687C15.464 15.3761 15.4972 15.2828 15.518 15.1885C15.5413 15.0903 15.5553 14.9959 15.56 14.9053ZM17.5348 13.4771C17.5252 13.3584 17.4847 13.2877 17.4134 13.2652C17.3446 13.2387 17.2543 13.2564 17.1423 13.3185C17.091 13.3469 17.0356 13.388 16.9762 13.4416C16.9169 13.4926 16.8613 13.5596 16.8094 13.6427C16.7576 13.7231 16.7128 13.8216 16.675 13.9382C16.6373 14.0522 16.6144 14.1877 16.6062 14.3448C16.6017 14.4301 16.6054 14.5108 16.6173 14.5869C16.6314 14.6618 16.6555 14.7222 16.6893 14.7681C16.7254 14.8127 16.7727 14.8395 16.8311 14.8485C16.8897 14.8548 16.9621 14.834 17.0484 14.7862C17.165 14.7216 17.2628 14.6273 17.3418 14.5034C17.4231 14.3781 17.4769 14.2358 17.5034 14.0763L17.9022 13.8552C17.8508 14.1449 17.7502 14.4011 17.6004 14.6237C17.4531 14.8424 17.2628 15.0164 17.0296 15.1457C16.8873 15.2246 16.7627 15.2678 16.6559 15.2753C16.5516 15.2788 16.4645 15.2547 16.3947 15.2028C16.3251 15.1483 16.2739 15.0668 16.2411 14.9583C16.2106 14.8485 16.1994 14.7177 16.2073 14.5659C16.2154 14.4115 16.2417 14.256 16.2861 14.0995C16.3306 13.943 16.3927 13.7948 16.4725 13.6549C16.5524 13.5123 16.6487 13.3827 16.7612 13.266C16.8762 13.1454 17.0084 13.0437 17.1576 12.9609C17.2626 12.9028 17.3609 12.8638 17.4525 12.844C17.5466 12.8203 17.6282 12.8191 17.6973 12.8402C17.7687 12.8601 17.8253 12.9037 17.8671 12.9711C17.9088 13.0384 17.931 13.1334 17.9336 13.2561L17.5348 13.4771ZM19.7247 13.1514C19.7218 13.2073 19.7255 13.2441 19.7359 13.2616C19.7487 13.2778 19.7737 13.2755 19.811 13.2549L19.853 13.2316C19.8693 13.2225 19.8881 13.2095 19.9094 13.1926L19.8929 13.5081C19.8786 13.5212 19.8596 13.5369 19.836 13.5551C19.8146 13.5748 19.7921 13.5937 19.7685 13.612C19.7449 13.6302 19.7214 13.6471 19.6979 13.6627C19.6745 13.6783 19.6546 13.6906 19.6382 13.6997C19.5566 13.7449 19.49 13.7638 19.4383 13.7562C19.3866 13.7487 19.355 13.7028 19.3436 13.6187C19.2597 13.7505 19.1584 13.8687 19.0396 13.9733C18.9233 14.0766 18.8114 14.158 18.7042 14.2175C18.6225 14.2627 18.5451 14.2927 18.4718 14.3074C18.3985 14.3248 18.3339 14.3257 18.2781 14.3101C18.2248 14.2906 18.1826 14.2532 18.1515 14.198C18.1229 14.1389 18.1112 14.0587 18.1165 13.9575C18.1232 13.8297 18.1485 13.7149 18.1923 13.613C18.2385 13.5098 18.2954 13.4175 18.3631 13.336C18.4331 13.2533 18.5094 13.18 18.592 13.1161C18.6771 13.0482 18.7619 12.9857 18.8464 12.9285C18.9196 12.8725 18.9889 12.8237 19.0545 12.7821C19.1202 12.738 19.178 12.6943 19.2278 12.6512C19.28 12.6067 19.3209 12.5608 19.3505 12.5133C19.3827 12.4619 19.4005 12.4029 19.404 12.3363C19.4071 12.2777 19.3967 12.2369 19.373 12.2139C19.3517 12.1895 19.3228 12.1783 19.2865 12.1804C19.2526 12.1785 19.2137 12.1871 19.1696 12.2064C19.1257 12.223 19.0839 12.2422 19.0443 12.2642C18.9323 12.3263 18.8388 12.404 18.7637 12.4973C18.6886 12.5906 18.6435 12.6958 18.6283 12.8128L18.2295 13.0339C18.2435 12.8969 18.2772 12.7708 18.3308 12.6558C18.3844 12.5408 18.4499 12.436 18.5273 12.3413C18.6071 12.2454 18.6953 12.1603 18.7921 12.086C18.8888 12.0117 18.9873 11.9467 19.0876 11.8911C19.1763 11.842 19.2632 11.8042 19.3483 11.7776C19.4335 11.7511 19.5087 11.7431 19.5738 11.7535C19.6413 11.7627 19.6939 11.7942 19.7319 11.8482C19.77 11.8995 19.7861 11.9797 19.7804 12.0889L19.7247 13.1514ZM19.356 12.7973C19.293 12.8762 19.2169 12.9455 19.1277 13.0053C19.0387 13.0624 18.9494 13.1248 18.8598 13.1926C18.8174 13.2239 18.7759 13.2585 18.7354 13.2964C18.6951 13.3317 18.6591 13.3711 18.6273 13.4145C18.5958 13.4553 18.5695 13.5022 18.5486 13.5551C18.5302 13.6041 18.5195 13.6579 18.5164 13.7165C18.5138 13.7671 18.5243 13.8026 18.5482 13.823C18.572 13.8434 18.6009 13.8545 18.6348 13.8564C18.6711 13.8544 18.71 13.8457 18.7516 13.8305C18.7955 13.8139 18.8349 13.7959 18.8699 13.7765C18.9142 13.7519 18.9624 13.7188 19.0144 13.677C19.0664 13.6353 19.1154 13.5861 19.1614 13.5296C19.2097 13.4718 19.2503 13.4105 19.2831 13.3458C19.3161 13.2784 19.3345 13.2087 19.3383 13.1368L19.356 12.7973ZM20.2485 11.3019L20.6473 11.0809L20.573 12.4989L20.58 12.495L21.4485 10.6368L21.9418 10.3633L21.8335 12.4285L21.4347 12.6496L21.5097 11.2195L21.5027 11.2234L20.6161 13.1034L20.1403 13.3671L20.2485 11.3019ZM20.7796 10.1776C20.7924 10.2791 20.8314 10.3337 20.8967 10.3415C20.9643 10.348 21.0447 10.3254 21.138 10.2736C21.2267 10.2245 21.3038 10.1572 21.3694 10.0717C21.4374 9.9849 21.4833 9.88573 21.5073 9.77419L21.7067 9.66366C21.6781 9.86307 21.6089 10.0385 21.4991 10.1899C21.3916 10.3399 21.2574 10.4596 21.0964 10.5488C20.9355 10.638 20.8097 10.6612 20.7191 10.6183C20.6285 10.5754 20.5811 10.466 20.5767 10.29L20.7796 10.1776ZM23.7968 9.66475L23.1986 9.99636L23.1081 11.722L22.7093 11.9431L22.7998 10.2174L22.177 10.5626L22.1948 10.2231L23.8146 9.32522L23.7968 9.66475Z" fill="white"/>
</svg>
