<svg width="18" height="35" viewBox="0 0 18 35" fill="none" xmlns="http://www.w3.org/2000/svg">
<path d="M8.52246 21.196L10.4316 20.2441V34.9986H8.52246V21.196Z" fill="#B3B3B3"/>
<path d="M8.52268 21.1953H8.04541V34.5219L8.52268 34.9979V21.1953Z" fill="#CCCCCC"/>
<path d="M1.90918 9.23195L17.9998 0.564453V15.8065L1.90918 24.4624V9.23195Z" fill="#00468A"/>
<path d="M6.71201 12.128C6.70238 12.0093 6.66192 11.9386 6.59064 11.9161C6.52182 11.8896 6.43144 11.9073 6.31949 11.9694C6.26818 11.9978 6.21281 12.0389 6.15339 12.0925C6.0941 12.1435 6.03851 12.2105 5.9866 12.2936C5.93483 12.374 5.89003 12.4725 5.85222 12.5891C5.81454 12.7031 5.79158 12.8386 5.78335 12.9957C5.77888 13.081 5.78258 13.1616 5.79444 13.2378C5.80863 13.3127 5.83264 13.3731 5.86647 13.419C5.90263 13.4636 5.94992 13.4904 6.00832 13.4993C6.06687 13.5057 6.13929 13.4849 6.22559 13.4371C6.3422 13.3725 6.43999 13.2782 6.51895 13.1542C6.60025 13.029 6.65413 12.8867 6.6806 12.7272L7.07943 12.5061C7.02802 12.7958 6.92741 13.0519 6.7776 13.2746C6.63026 13.4933 6.43998 13.6673 6.20675 13.7966C6.06448 13.8755 5.93993 13.9186 5.8331 13.9261C5.72874 13.9297 5.64169 13.9056 5.57194 13.8537C5.50233 13.7992 5.45112 13.7177 5.41831 13.6092C5.38783 13.4994 5.37657 13.3686 5.38452 13.2168C5.39262 13.0624 5.41888 12.9069 5.46332 12.7504C5.50775 12.5939 5.56987 12.4457 5.64967 12.3058C5.7296 12.1632 5.82585 12.0336 5.9384 11.9169C6.05342 11.7963 6.18557 11.6946 6.33483 11.6118C6.43979 11.5537 6.53807 11.5147 6.62969 11.4949C6.72378 11.4712 6.80537 11.4699 6.87447 11.4911C6.94589 11.511 7.00248 11.5546 7.04424 11.622C7.08601 11.6893 7.1082 11.7843 7.11083 11.907L6.71201 12.128ZM7.48173 11.0304L7.88055 10.8093L7.80624 12.2274L7.81323 12.2235L8.68171 10.3652L9.17499 10.0918L9.06676 12.157L8.66793 12.378L8.74288 10.948L8.73588 10.9519L7.84929 12.8318L7.3735 13.0956L7.48173 11.0304ZM11.03 9.39321L10.4318 9.72482L10.3414 11.4505L9.94253 11.6715L10.033 9.94589L9.41024 10.2911L9.42803 9.95154L11.0478 9.05368L11.03 9.39321ZM11.3048 8.91125L11.7036 8.69017L11.6293 10.1082L11.6363 10.1044L12.5048 8.24609L12.998 7.97266L12.8898 10.0378L12.491 10.2589L12.5659 8.82886L12.5589 8.83274L11.6723 10.7127L11.1965 10.9764L11.3048 8.91125ZM6.03589 17.7698C5.74435 17.9314 5.52507 17.9456 5.37806 17.8125C5.23104 17.6794 5.16856 17.4025 5.19061 16.9817C5.19564 16.8858 5.2043 16.7854 5.2166 16.6803C5.23123 16.5739 5.24922 16.4683 5.27057 16.3634C5.29426 16.2572 5.32239 16.1524 5.35499 16.049C5.39005 15.9416 5.43163 15.8397 5.47971 15.7432C5.57121 15.5529 5.67934 15.3908 5.80411 15.257C5.93135 15.1193 6.08738 14.994 6.27219 14.8812C6.3493 14.8359 6.41131 14.7976 6.45824 14.7664C6.50517 14.7353 6.54167 14.7086 6.56774 14.6864C6.59629 14.6602 6.61681 14.6359 6.62931 14.6134C6.64181 14.591 6.65109 14.5652 6.65715 14.536L7.03148 14.3285C7.02138 14.4349 7.00285 14.5292 6.97589 14.6114C6.95141 14.6896 6.91357 14.7636 6.86236 14.8333C6.81362 14.8991 6.75021 14.964 6.67212 15.028C6.59418 15.0893 6.49902 15.155 6.38665 15.225C6.24615 15.3132 6.12719 15.4011 6.02975 15.4888C5.93231 15.5764 5.8518 15.665 5.78823 15.7545C5.72466 15.844 5.67452 15.9365 5.63782 16.0318C5.60112 16.1271 5.57457 16.2233 5.55816 16.3203L5.56516 16.3164C5.63633 16.1684 5.72956 16.0314 5.84486 15.9054C5.9603 15.7768 6.09849 15.6679 6.25942 15.5787C6.37603 15.514 6.482 15.4798 6.5773 15.4761C6.67275 15.4698 6.75308 15.4925 6.81831 15.5442C6.88586 15.5947 6.93612 15.6728 6.96907 15.7787C7.00202 15.8845 7.01437 16.016 7.00614 16.1731C6.99777 16.3329 6.9691 16.491 6.92014 16.6474C6.87351 16.8026 6.80804 16.9501 6.72371 17.0899C6.64172 17.2284 6.54212 17.3573 6.42491 17.4766C6.31016 17.5919 6.18049 17.6896 6.03589 17.7698ZM6.05473 17.4103C6.14336 17.3612 6.22144 17.2972 6.28898 17.2184C6.35651 17.1396 6.41309 17.0539 6.4587 16.9614C6.50431 16.8689 6.53868 16.7749 6.5618 16.6793C6.5874 16.5798 6.60257 16.4848 6.60731 16.3942C6.61192 16.3063 6.60589 16.2269 6.58923 16.156C6.57489 16.0838 6.54834 16.0287 6.50957 15.9907C6.47094 15.9501 6.41995 15.9292 6.35659 15.9281C6.29324 15.9271 6.21725 15.9511 6.12863 16.0002C6.04 16.0493 5.96205 16.1106 5.8948 16.1841C5.82754 16.2576 5.77124 16.3379 5.72591 16.4251C5.68072 16.5096 5.64546 16.599 5.62015 16.6932C5.59716 16.7861 5.58337 16.8765 5.57876 16.9644C5.57402 17.0549 5.57867 17.1389 5.59272 17.2165C5.60925 17.2901 5.63669 17.3498 5.67504 17.3958C5.71339 17.4418 5.76411 17.4679 5.82718 17.4744C5.89025 17.4808 5.9661 17.4594 6.05473 17.4103ZM8.10969 16.6203C7.96509 16.7004 7.83704 16.7455 7.72555 16.7556C7.61653 16.7618 7.52488 16.7389 7.45061 16.687C7.37866 16.6337 7.32519 16.5522 7.29019 16.4423C7.25752 16.3312 7.24537 16.1957 7.25374 16.0359C7.26197 15.8788 7.28941 15.7227 7.33603 15.5675C7.38499 15.4111 7.45047 15.2636 7.53246 15.1251C7.61678 14.9853 7.71631 14.8577 7.83106 14.7424C7.94827 14.6231 8.07918 14.5234 8.22378 14.4432C8.36839 14.3631 8.4952 14.3199 8.60422 14.3138C8.71571 14.3037 8.80743 14.3253 8.87937 14.3785C8.95365 14.4304 9.00712 14.5119 9.03979 14.6231C9.0748 14.733 9.08818 14.8665 9.07995 15.0236C9.07157 15.1834 9.04291 15.3415 8.99395 15.4979C8.94732 15.653 8.88184 15.8005 8.79752 15.9403C8.71553 16.0789 8.61593 16.2078 8.49871 16.3271C8.38397 16.4424 8.2543 16.5401 8.10969 16.6203ZM8.12853 16.2608C8.21716 16.2116 8.29524 16.1477 8.36278 16.0688C8.43032 15.99 8.48689 15.9044 8.5325 15.8119C8.57812 15.7194 8.61248 15.6253 8.63561 15.5298C8.6612 15.4303 8.67637 15.3352 8.68112 15.2447C8.68573 15.1568 8.67984 15.0747 8.66345 14.9985C8.6494 14.921 8.62312 14.8605 8.58463 14.8172C8.54628 14.7713 8.49557 14.7451 8.43249 14.7387C8.36942 14.7323 8.29357 14.7536 8.20494 14.8028C8.11632 14.8519 8.03823 14.9158 7.97069 14.9947C7.90316 15.0735 7.84658 15.1591 7.80097 15.2516C7.7555 15.3415 7.71997 15.4362 7.69437 15.5357C7.67111 15.6339 7.65717 15.7269 7.65257 15.8148C7.64782 15.9054 7.65248 15.9894 7.66653 16.0669C7.68305 16.1405 7.71049 16.2003 7.74885 16.2463C7.7872 16.2922 7.83791 16.3184 7.90098 16.3248C7.96405 16.3312 8.03991 16.3099 8.12853 16.2608ZM9.47602 13.8034L9.85385 13.594L9.8392 13.8736L9.84619 13.8697C9.90845 13.7189 9.99105 13.5903 10.094 13.4841C10.1971 13.3753 10.3069 13.2885 10.4235 13.2239C10.5658 13.145 10.6879 13.1058 10.7898 13.1062C10.8941 13.1027 10.9786 13.1321 11.0433 13.1945C11.1081 13.2543 11.1545 13.341 11.1825 13.4548C11.2105 13.5685 11.2206 13.7013 11.2126 13.8531C11.2053 13.9916 11.182 14.1351 11.1425 14.2837C11.1053 14.431 11.0514 14.5733 10.9808 14.7107C10.9127 14.8442 10.828 14.9687 10.7269 15.0842C10.6258 15.1971 10.5089 15.2904 10.3759 15.3641C10.3176 15.3964 10.2596 15.4221 10.202 15.4411C10.1443 15.4627 10.0893 15.4751 10.037 15.4782C9.98479 15.4813 9.93639 15.4758 9.89184 15.4617C9.84976 15.4437 9.81502 15.4151 9.78763 15.376L9.78064 15.3799L9.72663 16.4105L9.3278 16.6315L9.47602 13.8034ZM10.8142 14.0662C10.8191 13.973 10.8133 13.8883 10.7969 13.812C10.7806 13.7358 10.7531 13.676 10.7146 13.6327C10.6763 13.5867 10.6267 13.5612 10.5658 13.5562C10.505 13.5485 10.4338 13.5673 10.3522 13.6125C10.1843 13.7056 10.0537 13.8426 9.96042 14.0236C9.86947 14.2033 9.81821 14.4037 9.80663 14.6247C9.80118 14.7285 9.80659 14.8199 9.82283 14.8988C9.84155 14.9738 9.87139 15.0309 9.91236 15.0703C9.95332 15.1096 10.0031 15.1311 10.0618 15.1348C10.1229 15.1372 10.1942 15.1157 10.2758 15.0705C10.3668 15.0201 10.4449 14.9561 10.5101 14.8786C10.5753 14.8011 10.6294 14.718 10.6726 14.6295C10.7182 14.537 10.7514 14.4436 10.7722 14.3493C10.7954 14.2511 10.8094 14.1567 10.8142 14.0662ZM11.6556 15.2094L11.2882 15.413L11.3389 14.4463L11.5663 14.3203C11.6018 14.2902 11.6355 14.2522 11.6674 14.2061C11.7259 14.1271 11.7691 14.0359 11.7972 13.9324C11.8139 13.8741 11.8269 13.819 11.8364 13.7672C11.8484 13.7114 11.8582 13.6542 11.8658 13.5957C11.8757 13.5359 11.8837 13.4708 11.8896 13.4002C11.8956 13.3297 11.9021 13.2485 11.9092 13.1567C11.9163 13.0649 11.9228 12.9617 11.9288 12.8472C11.9373 12.7287 11.9457 12.5896 11.9541 12.4298L13.4549 11.5979L13.3645 13.3235L13.6864 13.1451L13.6357 14.1118L13.2684 14.3154L13.3012 13.6882L11.6884 14.5822L11.6556 15.2094ZM13.0383 12.1585L12.3386 12.5463C12.3295 12.7194 12.3204 12.8732 12.311 13.0076C12.3019 13.1394 12.2911 13.2578 12.2788 13.3629C12.2689 13.4667 12.2572 13.5598 12.2438 13.6422C12.2306 13.7219 12.2143 13.7956 12.1949 13.8632C12.1834 13.9084 12.171 13.9515 12.1575 13.9925L12.9657 13.5446L13.0383 12.1585Z" fill="white"/>
<path d="M1.90909 9.23093L18 0.564521L16.3125 0L0 8.27903L1.90909 9.23093Z" fill="#CCCCCC"/>
<path d="M1.90909 9.23315V25.5458L0 24.9395V8.28125L1.90909 9.23315Z" fill="#B3B3B3"/>
<path d="M17.9998 16.3711L1.90918 25.5438V24.4616L16.8748 16.3711H17.9998Z" fill="#CCCCCC"/>
<path d="M18 16.4019V0.564453L16.875 1.17308V16.371L18 16.4019Z" fill="#878787"/>
</svg>
