<svg width="15" height="35" viewBox="0 0 15 35" fill="none" xmlns="http://www.w3.org/2000/svg">
<path d="M0 32.3085L11.3793 26.9238L15 28.27L3.62069 34.1035L0 32.3085Z" fill="#878787"/>
<path d="M0 32.3086V33.206L3.62069 35.001V34.1035L0 32.3086Z" fill="#A7A7A7"/>
<path d="M14.9999 28.2695V29.167L3.62061 35.0004V34.103L14.9999 28.2695Z" fill="#CCCCCC"/>
<path d="M3.62061 5.38641L12.4137 0.898438V28.2708L3.62061 32.758V5.38641Z" fill="#CCCCCC"/>
<path d="M4.1377 5.83346L11.8963 1.79492V16.6029L4.1377 20.6414V5.83346Z" fill="#00468A"/>
<path d="M3.62008 5.38524L2.06836 4.03906V32.3089L3.62008 32.7576V5.38524Z" fill="#A7A7A7"/>
<path d="M3.62057 5.38472L2.06885 4.03854L10.3447 0L12.4137 0.897454L3.62057 5.38472Z" fill="#B3B3B3"/>
</svg>
