<svg width="19" height="18" viewBox="0 0 19 18" fill="none" xmlns="http://www.w3.org/2000/svg">
<path d="M13.109 16.5317C7.44856 15.1129 2.98023 10.6774 1.51968 5.02758C0.966769 2.88876 2.80221 1.0633 5.01134 1.05514L6.01133 1.05145C6.56361 1.04941 7.00772 1.4966 7.06423 2.04599C7.1597 2.97419 7.38204 3.86456 7.71357 4.69957L6.19991 6.22445C7.39155 8.69111 9.40221 10.687 11.8776 11.8604L13.3913 10.3355C14.2287 10.6609 15.1207 10.8766 16.0496 10.9652C16.5994 11.0177 17.0498 11.4585 17.0519 12.0108L17.0555 13.0108C17.0637 15.2199 15.2518 17.0688 13.109 16.5317Z" stroke="#E8E8E8" stroke-width="2" stroke-linecap="round" stroke-linejoin="round"/>
</svg>
