<svg width="18" height="18" viewBox="0 0 18 18" fill="none" xmlns="http://www.w3.org/2000/svg">
<path d="M13.0279 16.5317C7.36751 15.1129 2.89918 10.6774 1.43863 5.02758C0.885715 2.88876 2.72116 1.0633 4.93028 1.05514L5.93027 1.05145C6.48256 1.04941 6.92666 1.4966 6.98317 2.04599C7.07864 2.97419 7.30098 3.86456 7.63252 4.69957L6.11885 6.22445C7.31049 8.69111 9.32116 10.687 11.7965 11.8604L13.3102 10.3355C14.1476 10.6609 15.0396 10.8766 15.9685 10.9652C16.5183 11.0177 16.9688 11.4585 16.9708 12.0108L16.9745 13.0108C16.9826 15.2199 15.1708 17.0688 13.0279 16.5317Z" stroke="#00468A" stroke-width="2" stroke-linecap="round" stroke-linejoin="round"/>
</svg>
